<?xml version="1.0" encoding="UTF-8"?>
<svg width="329px" height="154px" viewBox="0 0 329 154" version="1.1" xmlns="http://www.w3.org/2000/svg" xmlns:xlink="http://www.w3.org/1999/xlink">
    <!-- Generator: Sketch 52.5 (67469) - http://www.bohemiancoding.com/sketch -->
    <title>Group 3</title>
    <desc>Created with Sketch.</desc>
    <g id="Page-1" stroke="none" stroke-width="1" fill="none" fill-rule="evenodd">
        <g id="Logo-Dark-Light" transform="translate(-136.000000, -223.000000)">
            <g id="Group-3" transform="translate(128.000000, 225.000000)">
                <g id="Group-2" fill-rule="nonzero">
                    <path d="M76,0.577350269 L139.951905,37.5 L139.951905,112.5 L76,149.42265 C75.3811978,149.779915 74.6188022,149.779915 74,149.42265 L11.0480947,113.07735 C10.4292926,112.720085 10.0480947,112.059831 10.0480947,111.345299 L10.0480947,38.6547005 C10.0480947,37.9401694 10.4292926,37.2799153 11.0480947,36.9226497 L74,0.577350269 C74.6188022,0.220084679 75.3811978,0.220084679 76,0.577350269 Z" id="Polygon" fill="#323A94"></path>
                    <path d="M141,0.577350269 L204.951905,37.5 L204.951905,112.5 L141,149.42265 C140.381198,149.779915 139.618802,149.779915 139,149.42265 L75.0480947,112.5 L75.0480947,37.5 L139,0.577350269 C139.618802,0.220084679 140.381198,0.220084679 141,0.577350269 Z" id="Polygon" fill="#5B458F"></path>
                    <path d="M205.9,0.577350269 L269.851905,37.5 L269.851905,112.5 L205.9,149.42265 C205.281198,149.779915 204.518802,149.779915 203.9,149.42265 L139.948095,112.5 L139.948095,37.5 L203.9,0.577350269 C204.518802,0.220084679 205.281198,0.220084679 205.9,0.577350269 Z" id="Polygon" fill="#814B6D"></path>
                    <path d="M270.9,0.577350269 L333.851905,36.9226497 C334.470707,37.2799153 334.851905,37.9401694 334.851905,38.6547005 L334.851905,111.345299 C334.851905,112.059831 334.470707,112.720085 333.851905,113.07735 L270.9,149.42265 C270.281198,149.779915 269.518802,149.779915 268.9,149.42265 L204.948095,112.5 L204.948095,37.5 L268.9,0.577350269 C269.518802,0.220084679 270.281198,0.220084679 270.9,0.577350269 Z" id="Polygon" fill="#A12C2C"></path>
                    <polygon id="Polygon" fill="#41215F" points="107.5 18.8 139.975953 37.7159292 139.975953 112.384071 107.5 131.3 75.0240474 112.384071 75.0240474 37.7159292"></polygon>
                    <polygon id="Polygon" fill="#5C234D" points="172.5 18.8 204.975953 37.7159292 204.975953 112.384071 172.5 131.3 140.024047 112.384071 140.024047 37.7159292"></polygon>
                    <polygon id="Polygon" fill="#72243E" points="237.5 18.8 269.975953 37.7159292 269.975953 112.384071 237.5 131.3 205.024047 112.384071 205.024047 37.7159292"></polygon>
                </g>
                <path d="M237.427326,17.6090909 L268.416583,-0.28828298 C269.344969,-0.824458169 270.488916,-0.824458169 271.417302,-0.28828298 L334.348454,36.0566474 C335.276455,36.5926001 335.848095,37.5828676 335.848095,38.654516 L335.848095,111.345484 C335.848095,112.417132 335.276455,113.4074 334.348454,113.943353 L271.417302,150.288283 C270.488916,150.824458 269.344969,150.824458 268.416583,150.288283 L237.427326,132.390909 L206.43807,150.288283 C205.509684,150.824458 204.365737,150.824458 203.437351,150.288283 L172.448095,132.390909 L141.458838,150.288283 C140.530452,150.824458 139.386505,150.824458 138.458119,150.288283 L107.468863,132.390909 L76.4796066,150.288283 C75.5512207,150.824458 74.4072735,150.824458 73.4788876,150.288283 L10.5477352,113.943353 C9.61973457,113.4074 9.04809472,112.417132 9.04809472,111.345484 L9.04809472,38.654516 C9.04809472,37.5828676 9.61973457,36.5926001 10.5477352,36.0566474 L73.4788876,-0.28828298 C74.4072735,-0.824458169 75.5512207,-0.824458169 76.4796066,-0.28828298 L107.468863,17.6090909 L138.458119,-0.28828298 C139.386505,-0.824458169 140.530452,-0.824458169 141.458838,-0.28828298 L172.448095,17.6090909 L203.437351,-0.28828298 C204.365737,-0.824458169 205.509684,-0.824458169 206.43807,-0.28828298 L237.427326,17.6090909 Z" id="Combined-Shape" stroke="#FFFFFF" stroke-width="2" fill-rule="nonzero"></path>
                <path d="M253.16,110.86 C253.253334,110.86 253.326666,110.886666 253.38,110.94 C253.433334,110.993334 253.46,111.066666 253.46,111.16 L253.46,111.86 C253.46,111.953334 253.433334,112.026666 253.38,112.08 C253.326666,112.133334 253.253334,112.16 253.16,112.16 L245.3,112.16 C245.206666,112.16 245.133334,112.133334 245.08,112.08 C245.026666,112.026666 245,111.953334 245,111.86 L245,110.86 L248.3,107.38 L248.88,106.78 C249.720004,105.886662 250.329998,105.216669 250.71,104.77 C251.090002,104.323331 251.386666,103.886669 251.6,103.46 C251.813334,103.033331 251.92,102.586669 251.92,102.12 C251.92,101.293329 251.666669,100.630003 251.16,100.13 C250.653331,99.6299975 249.960004,99.38 249.08,99.38 C248.586664,99.38 248.150002,99.4566659 247.77,99.61 C247.389998,99.7633341 247.086668,99.9333324 246.86,100.12 C246.633332,100.306668 246.366668,100.553332 246.06,100.86 C245.98,100.94 245.906667,100.98 245.84,100.98 C245.773333,100.98 245.7,100.94 245.62,100.86 L245.1,100.36 C245.033333,100.293333 245,100.22 245,100.14 C245,100.06 245.026666,99.9933336 245.08,99.94 C245.573336,99.3666638 246.159997,98.9000018 246.84,98.54 C247.520003,98.1799982 248.266663,98 249.08,98 C249.933338,98 250.68333,98.1799982 251.33,98.54 C251.97667,98.9000018 252.476665,99.3933302 252.83,100.02 C253.183335,100.64667 253.36,101.346663 253.36,102.12 C253.36,102.733336 253.230001,103.313331 252.97,103.86 C252.709999,104.406669 252.346669,104.959997 251.88,105.52 C251.413331,106.080003 250.706671,106.853328 249.76,107.84 L246.88,110.86 L253.16,110.86 Z M261.9,98 C262.953339,98 263.873329,98.2833305 264.66,98.85 C265.446671,99.4166695 266.056664,100.243328 266.49,101.33 C266.923335,102.416672 267.14,103.713326 267.14,105.22 C267.14,106.726674 266.923335,108.019995 266.49,109.1 C266.056664,110.180005 265.446671,111.003331 264.66,111.57 C263.873329,112.13667 262.953339,112.42 261.9,112.42 C260.846661,112.42 259.926671,112.13667 259.14,111.57 C258.353329,111.003331 257.743335,110.180005 257.31,109.1 C256.876664,108.019995 256.66,106.726674 256.66,105.22 C256.66,103.713326 256.876664,102.416672 257.31,101.33 C257.743335,100.243328 258.353329,99.4166695 259.14,98.85 C259.926671,98.2833305 260.846661,98 261.9,98 Z M261.9,99.36 C260.726661,99.36 259.800003,99.8799948 259.12,100.92 C258.439997,101.960005 258.1,103.393324 258.1,105.22 C258.1,107.046676 258.439997,108.476662 259.12,109.51 C259.800003,110.543339 260.726661,111.06 261.9,111.06 C263.073339,111.06 263.999997,110.543339 264.68,109.51 C265.360003,108.476662 265.7,107.046676 265.7,105.22 C265.7,103.393324 265.360003,101.960005 264.68,100.92 C263.999997,99.8799948 263.073339,99.36 261.9,99.36 Z M272.84,98.16 C272.933334,98.16 273.006666,98.1866664 273.06,98.24 C273.113334,98.2933336 273.14,98.3666662 273.14,98.46 L273.14,111.86 C273.14,111.953334 273.113334,112.026666 273.06,112.08 C273.006666,112.133334 272.933334,112.16 272.84,112.16 L271.94,112.16 C271.846666,112.16 271.773334,112.133334 271.72,112.08 C271.666666,112.026666 271.64,111.953334 271.64,111.86 L271.64,99.46 L270.14,99.46 C270.046666,99.46 269.973334,99.4333336 269.92,99.38 C269.866666,99.3266664 269.84,99.2533338 269.84,99.16 L269.84,98.46 C269.84,98.3666662 269.866666,98.2933336 269.92,98.24 C269.973334,98.1866664 270.046666,98.16 270.14,98.16 L272.84,98.16 Z M280.94,98 C281.766671,98 282.52333,98.2066646 283.21,98.62 C283.89667,99.0333354 284.439998,99.5899965 284.84,100.29 C285.240002,100.990004 285.44,101.753329 285.44,102.58 C285.44,103.673339 285.040004,104.759995 284.24,105.84 L279.36,112.48 C279.306666,112.573334 279.233334,112.62 279.14,112.62 C279.059999,112.62 278.993333,112.593334 278.94,112.54 L278.36,112.02 C278.266666,111.926666 278.22,111.846667 278.22,111.78 C278.22,111.74 278.246666,111.68 278.3,111.6 L281.7,107 C281.406665,107.066667 281.153334,107.1 280.94,107.1 C280.099996,107.1 279.33667,106.900002 278.65,106.5 C277.96333,106.099998 277.423335,105.55667 277.03,104.87 C276.636665,104.18333 276.44,103.420004 276.44,102.58 C276.44,101.753329 276.639998,100.990004 277.04,100.29 C277.440002,99.5899965 277.98333,99.0333354 278.67,98.62 C279.35667,98.2066646 280.113329,98 280.94,98 Z M280.94,105.76 C281.513336,105.76 282.033331,105.623335 282.5,105.35 C282.966669,105.076665 283.333332,104.696669 283.6,104.21 C283.866668,103.723331 284,103.180003 284,102.58 C284,101.966664 283.866668,101.413336 283.6,100.92 C283.333332,100.426664 282.966669,100.043335 282.5,99.77 C282.033331,99.4966653 281.513336,99.36 280.94,99.36 C280.366664,99.36 279.846669,99.4966653 279.38,99.77 C278.913331,100.043335 278.546668,100.426664 278.28,100.92 C278.013332,101.413336 277.88,101.966664 277.88,102.58 C277.88,103.180003 278.013332,103.723331 278.28,104.21 C278.546668,104.696669 278.913331,105.076665 279.38,105.35 C279.846669,105.623335 280.366664,105.76 280.94,105.76 Z" id="2019" fill="#FFFFFF"></path>
                <path d="M80.1469533,72.9078388 L80.1469533,58.7394288 C80.1469533,58.516804 80.2104216,58.3379117 80.3373602,58.2027466 C80.4642988,58.0675815 80.6388367,58 80.8609792,58 L84.7167187,58 C84.9388612,58 85.1173659,58.0675815 85.2522381,58.2027466 C85.3871104,58.3379117 85.4545455,58.516804 85.4545455,58.7394288 L85.4545455,91.4651166 C85.4545455,91.6877415 85.3871104,91.8666338 85.2522381,92.0017988 C85.1173659,92.1369639 84.9388612,92.2045455 84.7167187,92.2045455 L80.8609792,92.2045455 C80.6388367,92.2045455 80.4642988,92.1409393 80.3373602,92.0137251 C80.2104216,91.8865109 80.1469533,91.7036433 80.1469533,91.4651166 L80.1469533,77.7021998 L80.1469533,72.9078388 Z M77.210167,77.7021998 L67.7990663,77.7021998 L65.3075921,77.7021998 L65.3075921,91.4651166 C65.3075921,91.6877415 65.2441238,91.8666338 65.1171852,92.0017988 C64.9902467,92.1369639 64.8157088,92.2045455 64.5935663,92.2045455 L60.7378267,92.2045455 C60.5156842,92.2045455 60.3371795,92.1409393 60.2023073,92.0137251 C60.0674351,91.8865109 60,91.7036433 60,91.4651166 L60,58.7394288 C60,58.516804 60.0674351,58.3379117 60.2023073,58.2027466 C60.3371795,58.0675815 60.5156842,58 60.7378267,58 L64.5935663,58 C64.8157088,58 64.9902467,58.0675815 65.1171852,58.2027466 C65.2441238,58.3379117 65.3075921,58.516804 65.3075921,58.7394288 L65.3075921,72.9078388 L67.7990663,72.9078388 L77.2415719,72.9078388 M98.7033633,80.724794 L94.8565066,91.6082319 C94.7294841,92.0057763 94.4516265,92.2045455 94.0229257,92.2045455 L90.0693705,92.2045455 C89.8153256,92.2045455 89.6327335,92.1250378 89.5215888,91.96602 C89.4104441,91.8070023 89.4025054,91.6082331 89.4977722,91.3697065 L101.382254,58.5963136 C101.541032,58.1987692 101.834767,58 102.263468,58 L105.978857,58 C106.407558,58 106.701293,58.1987692 106.860071,58.5963136 L118.816003,91.3697065 C118.847759,91.4333136 118.863636,91.5287228 118.863636,91.655937 C118.863636,92.0216778 118.649289,92.2045455 118.220588,92.2045455 L114.267033,92.2045455 C113.838332,92.2045455 113.560475,92.0057763 113.433452,91.6082319 L109.678051,80.724794 L98.7033633,80.724794 Z M99,80.7 L109.7,80.7 L104.474886,65.1590909 L99,80.7 Z M119.659091,75.5118483 C119.659091,72.3048813 120.436121,69.3625726 121.990206,66.6848341 C123.54429,64.0070956 125.652234,61.8902132 128.314102,60.3341232 C130.975969,58.7780333 133.900791,58 137.088657,58 C139.336102,58 141.459985,58.4225866 143.46037,59.2677725 C145.460756,60.1129584 147.257888,61.2780336 148.85182,62.7630332 C149.011214,62.8894161 149.090909,63.06319 149.090909,63.2843602 C149.090909,63.4739346 149.027153,63.6398097 148.899638,63.7819905 L146.460933,66.2938389 C146.30154,66.4518175 146.13418,66.5308057 145.958847,66.5308057 C145.831333,66.5308057 145.656003,66.4518175 145.432852,66.2938389 C142.914439,64.1927225 140.117129,63.1421801 137.040839,63.1421801 C134.857151,63.1421801 132.852811,63.6832489 131.027758,64.7654028 C129.202705,65.8475568 127.760218,67.3285846 126.700253,69.2085308 C125.640288,71.088477 125.110313,73.1895618 125.110313,75.5118483 C125.110313,77.8025391 125.640288,79.8878263 126.700253,81.7677725 C127.760218,83.6477187 129.202705,85.1208477 131.027758,86.1872038 C132.852811,87.2535598 134.857151,87.7867299 137.040839,87.7867299 C140.180886,87.7867299 142.978196,86.7361874 145.432852,84.6350711 C145.560367,84.5086882 145.719758,84.4454976 145.911029,84.4454976 C146.13418,84.4454976 146.31748,84.5244858 146.460933,84.6824645 L148.899638,87.2180095 C149.027153,87.3443924 149.090909,87.5023687 149.090909,87.6919431 C149.090909,87.8815175 149.011214,88.0631903 148.85182,88.2369668 C147.226009,89.7219664 145.416923,90.8870416 143.424507,91.7322275 C141.432091,92.5774134 139.320162,93 137.088657,93 C133.884852,93 130.956045,92.2219667 128.302147,90.6658768 C125.648249,89.1097868 123.54429,86.9968538 121.990206,84.3270142 C120.436121,81.6571746 119.659091,78.7188154 119.659091,75.5118483 Z M159.431818,75.6608399 L171.259051,58.5166981 C171.484313,58.1924937 171.781977,58.0202628 172.152051,58 L177.075623,58 C177.268706,58 177.425583,58.0557218 177.546259,58.167167 C177.666935,58.2786123 177.727273,58.4153839 177.727273,58.5774861 C177.727273,58.7395883 177.646823,58.9219505 177.485921,59.1245782 L165.225261,76.5099494 L161.653258,81.5553543 L159.431818,84.7109511 L159.431818,91.4651166 C159.431818,91.6877415 159.365234,91.8666338 159.232063,92.0017988 C159.098892,92.1369639 158.915785,92.2045455 158.682735,92.2045455 L154.637689,92.2045455 C154.404639,92.2045455 154.217371,92.1409393 154.075876,92.0137251 C153.934382,91.8865109 153.863636,91.7036433 153.863636,91.4651166 L153.863636,58.7394288 C153.863636,58.516804 153.934382,58.3379117 154.075876,58.2027466 C154.217371,58.0675815 154.404639,58 154.637689,58 L158.682735,58 C158.915785,58 159.098892,58.0675815 159.232063,58.2027466 C159.365234,58.3379117 159.431818,58.516804 159.431818,58.7394288 L159.431818,72.7647236 L159.431818,75.6608399 Z M168.911282,76.2954545 L178.359648,91.164047 C178.468368,91.3327773 178.522727,91.5108789 178.522727,91.698357 C178.522727,92.0358177 178.328587,92.2045455 177.9403,92.2045455 L173.397369,92.2045455 C173.009082,92.2045455 172.72952,92.0358177 172.558674,91.698357 C169.918718,87.3889805 167.938752,84.1569481 166.618774,82.0022598 C166.453812,81.7329814 166.179372,81.2849949 165.795455,80.6583003 L168.911282,76.2954545 Z" id="HACK" fill="#FFFFFF"></path>
                <path d="M197,91.6105407 L197,58.742642 C197,58.5509915 197.05989,58.3872925 197.179671,58.25154 C197.299453,58.1157876 197.455167,58.0319418 197.646817,58 L202.4141,58 C202.813372,58 203.100843,58.1676917 203.276523,58.5030801 L218.15332,84.255989 L218.15332,58.742642 C218.15332,58.5190498 218.217202,58.3393801 218.344969,58.2036277 C218.472736,58.0678752 218.656399,58 218.895962,58 L222.752909,58 C222.992472,58 223.176134,58.0678752 223.303901,58.2036277 C223.431668,58.3393801 223.495551,58.5190498 223.495551,58.742642 L223.495551,91.6105407 C223.495551,91.834133 223.431668,92.0138027 223.303901,92.1495551 C223.176134,92.2853075 223.016428,92.3531828 222.824778,92.3531828 L218.105407,92.3531828 C217.706135,92.3531828 217.410679,92.1934764 217.219028,91.8740589 L202.342231,66.1451061 L202.342231,91.6105407 C202.342231,91.834133 202.278349,92.0138027 202.150582,92.1495551 C202.022815,92.2853075 201.847138,92.3531828 201.623546,92.3531828 L197.742642,92.3531828 C197.51905,92.3531828 197.33938,92.2893002 197.203628,92.1615332 C197.067875,92.0337662 197,91.8501039 197,91.6105407 Z M230.597125,62.072553 L230.597125,58.742642 C230.597125,58.5190498 230.665,58.3393801 230.800753,58.2036277 C230.936505,58.0678752 231.116175,58 231.339767,58 L251.894182,58 C252.117774,58 252.297444,58.0678752 252.433196,58.2036277 C252.568949,58.3393801 252.636824,58.5190498 252.636824,58.742642 L252.636824,62.072553 C252.636824,62.2961453 252.568949,62.475815 252.433196,62.6115674 C252.297444,62.7473199 252.117774,62.8151951 251.894182,62.8151951 L244.300068,62.8151951 L244.300068,91.6105407 C244.300068,91.834133 244.232193,92.0138027 244.096441,92.1495551 C243.960688,92.2853075 243.781019,92.3531828 243.557426,92.3531828 L239.676523,92.3531828 C239.452931,92.3531828 239.273261,92.2893002 239.137509,92.1615332 C239.001756,92.0337662 238.933881,91.8501039 238.933881,91.6105407 L238.933881,62.8151951 L231.339767,62.8151951 C231.116175,62.8151951 230.936505,62.7513125 230.800753,62.6235455 C230.665,62.4957785 230.597125,62.3121162 230.597125,62.072553 Z M259.989459,79.0095825 L259.989459,58.742642 C259.989459,58.5190498 260.053342,58.3393801 260.181109,58.2036277 C260.308876,58.0678752 260.492538,58 260.732101,58 L264.613005,58 C264.836597,58 265.012274,58.0678752 265.140041,58.2036277 C265.267808,58.3393801 265.331691,58.5190498 265.331691,58.742642 L265.331691,79.0095825 C265.331691,81.8843402 265.986487,84.07631 267.296099,85.5855578 C268.60571,87.0948056 270.386436,87.8494182 272.63833,87.8494182 C274.922165,87.8494182 276.722854,87.0948056 278.040452,85.5855578 C279.358049,84.07631 280.016838,81.8843402 280.016838,79.0095825 L280.016838,58.742642 C280.016838,58.5190498 280.08072,58.3393801 280.208487,58.2036277 C280.336254,58.0678752 280.511931,58 280.735524,58 L284.616427,58 C284.840019,58 285.019689,58.0678752 285.155441,58.2036277 C285.291194,58.3393801 285.359069,58.5190498 285.359069,58.742642 L285.359069,79.0095825 C285.359069,81.9801654 284.82006,84.5115113 283.742026,86.6036961 C282.663992,88.6958809 281.166745,90.2849592 279.25024,91.3709788 C277.333734,92.4569984 275.129787,93 272.63833,93 C270.178815,93 267.99483,92.4569984 266.086311,91.3709788 C264.177791,90.2849592 262.684537,88.6958809 261.606502,86.6036961 C260.528468,84.5115113 259.989459,81.9801654 259.989459,79.0095825 Z" id="NTU" fill="#FFFFFF"></path>
            </g>
        </g>
    </g>
</svg>